<?xml version="1.0" encoding="utf-8"?>
<!-- Generator: Adobe Illustrator 22.0.1, SVG Export Plug-In . SVG Version: 6.00 Build 0)  -->
<svg version="1.1" id="Слой_2_1_" xmlns="http://www.w3.org/2000/svg" xmlns:xlink="http://www.w3.org/1999/xlink" x="0px"
	 y="0px" viewBox="0 0 612 792" style="enable-background:new 0 0 612 792;" xml:space="preserve">
<style type="text/css">
	.st0{fill:none;stroke:#5B1500;stroke-width:7;stroke-miterlimit:10;}
</style>
<path class="st0" d="M38.7,417.1c4.6-1.8,9.2-3.6,13.8-5.4c5.5-4,8.9-8.2,11-11.1c2.5-3.5,4-6.6,6.7-12.2c2-4.2,2.9-6.4,5.5-12.8
	c2.3-5.8,4.8-11.8,7.6-17.9c2.9-6.3,5.8-12.4,8.7-18.1c2.3-4.7,4.9-9.7,8-14.9c2.7-4.5,5.3-8.6,8-12.4c2.2-2.8,4.4-5.6,6.6-8.4
	c4.4-5.7,9.6-11.8,15.6-18c3.6-3.7,7.2-7.1,10.7-10.3c3-2.4,6-4.8,9-7.2c2.2-1.7,4.3-3.5,6.5-5.2c1.6-1.4,4-3.3,7.1-5.3
	c2.2-1.5,3.7-2.4,7.1-4.4c9.5-5.6,8.4-5.1,11-6.6c2-1.1,5.7-2.8,12.9-6.2c6.1-2.9,9.2-4.3,13-6c3-1.3,6-2.6,9.7-4.1
	c4.2-1.6,9.8-3.7,16.8-5.7c-4.6,15.5-9.2,31-13.8,46.6c-6.7,2.5-12.1,5.2-16,7.4c-4.2,2.4-7.3,4.5-8.1,5.1c-2.2,1.5-4,3-7.5,5.7
	c-2.9,2.3-5.3,4.3-7,5.7c-2.1,2.2-4.3,4.5-6.4,6.8c-2.3,2.4-4.5,4.9-6.8,7.3c-1.4,1.7-3.2,4-5.2,6.7c-1.6,2.2-4.6,6.3-7.8,11.6
	c-2.5,4.1-5.5,9.7-8.5,16.6c-0.5,1.5-1.3,3.8-2.4,6.6c-1.1,2.9-1.6,4.1-2.5,6.6c-0.6,1.7-1.6,4.3-2.6,7.5c-1.1,5.3-1.8,9.7-2.3,12.9
	c-0.4,3-0.8,5.8-1.1,8.5c-0.5,3.7-0.7,5.6-0.9,7.7c-0.5,4.8-0.6,8.5-0.7,13c-0.1,3.4-0.2,6.4-0.1,10.6c0,3.1,0.2,8.2,0.7,13.8
	c0.5,6,1.6,14.5,4.1,24.7c0.6,2.2,1.4,5.1,2.6,8.5c0.8,2.5,1.7,5.1,3.4,9.5c2.6,6.9,3.9,10.3,5.5,13.7c3.3,7.2,6.5,12.3,9.6,17.2
	c2.8,4.4,6,9.5,11,15.8c6.1,7.6,11.6,12.9,14.8,15.9c3.1,3,5.9,5.4,6.8,6.2c2.6,2.2,5,4.2,7.3,6c3.8,2.1,6.8,3.9,8.9,5.2
	c3.5,2.1,4.8,3,7.4,4.5c3.6,2,6.6,3.5,8.7,4.4c2.8,1.2,5.9,2.4,9.3,3.5c3,1,5.8,1.7,8.5,2.4c2.8,0.7,4.4,0.8,7.5,1.2
	c6.1,0.8,5.5,1.1,9.8,1.7c4,0.5,7.2,0.6,11.7,0.7c3.5,0.1,4.1,0,8,0.1c4,0.1,4.4,0.3,7,0.3c3.8,0,6.7-0.2,9-0.4
	c3.4-0.3,3.1-0.4,10.3-1.3c5.7-0.7,7-0.7,10-1.3c2.7-0.5,4.9-1.1,6.3-1.6c3.1-0.8,7.6-2,13.1-3.7c2.1-0.7,4.6-1.5,13.4-4.5
	c3.7-1.3,8.8-3.1,14.8-5.2c1.7,6.1,3.4,12.2,5.1,18.4c1.7,5,3.4,9.9,5.1,14.9c-7.3,2.7-14.6,5.4-21.9,8.1c-5.7,1.5-11.8,2.9-18.3,4
	c-5.2,0.9-10.2,1.6-14.9,2.2c-5.4,0.3-10.1,0.5-13.8,0.7c-3.5,0.1-7.3,0.3-12.2,0.3c-5.5,0.1-5.5-0.1-10.5,0
	c-7.4,0.1-7.7,0.4-11.9,0.3c-4.8-0.1-8.2-0.5-12.8-1.1c-2.7-0.3-8.1-1.1-14.9-2.5c-8.8-1.8-15.7-3.9-19.9-5.3
	c-6.3-2-13.5-4.7-21.3-8.4c-2.9-1.2-6.9-3-11.4-5.5c-2.5-1.4-5.5-3.3-11.4-7.6c-6.6-4.8-11.6-8.4-17.9-13.9
	c-4.4-3.8-9.7-8.9-15.4-15.3c-3.6-4.6-7.2-9.3-10.9-14.1c-2.5-3.4-5-6.7-7.5-10.1c-3.7-6.1-7.5-12.1-11.2-18.2
	c-3.9-6.1-7.8-12.1-11.7-18.2c-2-3.4-4.3-7-6.9-10.7c-1.8-2.6-3.6-5-5.4-7.3c-3.7-5.5-6.9-9.6-9.2-12.4c-1.8-2.2-5-5.9-5.8-6.9
	c-1.9-2.2-3.4-4-4.5-5.2c-2.4-2.5-4.7-4.5-6.4-5.9c-2.6-2.1-4.9-3.6-6.5-4.8c-2.6-1.7-3-1.8-5.8-3.7c-2.9-1.9-3.8-2.7-5.8-4.1
	C45.8,421.2,42.7,419.2,38.7,417.1z"/>
<path class="st0" d="M61.1,605.2c1-0.5,2.3-1.1,3.8-1.8c1.7-0.8,4.1-2,7-3.5c4-2,7.3-3.8,9.6-5.1c3.8-2.1,8.3-4.6,13.3-7.6
	c3.9-2.8,7.8-5.7,11.8-8.5c2.4-2.1,4.8-4.4,7.4-7c2.1-2.2,4-4.4,5.8-6.5c1.9-2.8,3.8-5.7,5.7-8.5c1.4-2.7,2.9-5.5,4.3-8.5
	c1.2-2.5,2.3-5,3.2-7.4c1.4,2.2,3.4,5.1,6,8.5c2.2,2.8,3.9,4.8,6.9,8.2c4,4.5,7.1,7.7,8.5,9.1c3.2,3.2,4.8,4.9,7.3,6.9
	c1.3,1.1,2.7,2.2,5.5,4.4c2.4,1.9,4.5,3.4,5.9,4.5c2.3,1.4,4.8,2.8,7.3,4.2c4.1,2.2,8,4.3,11.8,6.1c3.3,1.4,7.8,3.3,13.1,5.4
	c2.7,1.1,6.5,2.6,10.9,4.3c4.8,1.8,11.3,4.3,19.2,7C177.3,607.9,119.2,606.5,61.1,605.2z"/>
<path class="st0" d="M155.9,478.6c3.5,6.5,6.6,11.8,9.1,15.9c0.7,1.1,4.7,7.7,10.3,15.8c2,2.9,4.2,5.8,7.5,9
	c2.1,2.1,4.1,3.6,5.5,4.7c13.6-36.5,27.2-73,40.7-109.4h99.3c1.8,6.2,3.6,12.4,5.5,18.6c1-0.8,2.1-1.6,3.3-2.5c1-0.7,2-1.3,3-1.9
	c1-0.7,2.3-1.5,3.8-2.3c1.7-0.9,3.1-1.5,3.6-1.7c1.4-0.6,2.6-1,5-1.7c2.2-0.7,2.1-0.6,3.5-1.1c2.5-0.8,2.7-1.1,4.5-1.6
	c1-0.3,2.3-0.7,4-0.9c1.5-0.2,2.7-0.2,3.6-0.2c-26.5-82.4-53-164.7-79.5-247.1c-4.2-0.1-8.4-0.2-12.7-0.3c-4.5,0-8.9,0-13.2,0
	C227,274.2,191.5,376.4,155.9,478.6z"/>
<path class="st0" d="M238.2,388.9h82.5l-41.3-125.1C265.7,305.5,251.9,347.2,238.2,388.9z"/>
<path class="st0" d="M340.3,455.7c13.2,39.6,26.3,79.1,39.5,118.7c1,3.3,1.8,7.9,1,13.1c-0.9,6.3-3.5,9.8-4.1,10.6
	c-2,2.6-4.4,4.2-5.9,5c-3.8,1.5-7.6,3.2-11.5,4.9c-4.3,1.9-8.5,3.8-12.6,5.7c35.5,0.6,71,1.1,106.5,1.7c-1.7-0.9-3.4-1.8-5.2-2.7
	c-2.8-1.5-5.7-2.9-8.5-4.3c-1.5-0.7-3.2-1.5-4.9-2.4c-2.2-1.3-4.1-2.6-5.7-3.8c-1.8-1.3-3.9-3.2-6-5.8c-2.7-3.3-4.3-6.5-5.2-8.9
	c-1.4-4.3-2.9-8.7-4.4-13.1c-1.3-3.7-2.6-7.4-3.9-11.1c-10.4-33.5-20.8-67-31.2-100.5c-0.8-0.8-1.8-1.6-2.9-2.4
	c-1.2-0.9-2.4-1.5-3.5-2.1c-1.6-0.4-3.4-0.9-5.5-1.4c-0.9-0.2-2.6-0.5-4.6-0.9c-1.8-0.3-5.2-0.8-9.4-1
	C349.2,455.1,345.1,455.1,340.3,455.7z"/>
<path class="st0" d="M313,218.9c4.5,12.6,8.9,25.2,13.4,37.8c8.8,2.9,16.1,5.8,21.7,8.2c4.7,2,9.1,3.9,14.8,7
	c3.8,2.1,8.1,4.4,13.3,8.1c6.1,4.4,10.1,8.4,13.7,12.1c2.5,2.5,6.6,6.8,11.2,12.6c4.1,5.1,7.4,10.1,10.2,14.6
	c2,3.8,4.1,7.7,6.1,11.6c2.5,4.8,4.8,9.5,7.1,14.1c3.3,6.8,5.4,11.9,8.1,18.7c2.8,6.8,6.3,15.8,10.2,26.5c0.3-3.2,0.8-7.4,1.5-12.4
	c0.7-4.9,1.3-8.9,2.5-14.1c0.6-2.4,2.1-8.5,4.8-16.1c1-2.7,2.3-6.4,4.6-11.1c2.6-5.5,5.3-9.9,7.4-13.1c3.6-5.5,7.1-10,9.9-13.4
	c3.3-4,6.7-8,11.9-12.4c1.7-1.5,3.7-3,7.6-5.9c5.8-4.4,8.7-6.6,12.3-8.7c2.8-1.7,7-4,12.3-6.2c4.2-1.6,8.3-3.2,12.5-4.8
	c-1.9-0.9-4.5-1.9-7.6-3c-2.3-0.8-8.1-2.7-16-3.8c-4.4-0.6-7.8-0.8-14.7-1.1c-4-0.2-7.4-0.2-9.7-0.2c-4.7-0.1-9.8-0.1-15.3,0.3
	c-6,0.4-11.6,1.1-16.6,2c-7.9,1.4-11.5,2-12.5,2.3c-4.1,1-7.6,2.1-10,2.9c-3-2.4-7.9-6.3-14-11.2c-11.2-9-12.4-10-15.3-12.1
	c-8.7-6.3-15.8-10.3-19.1-12.1c-3.4-1.9-8.2-4.5-14.9-7.2c-8.7-3.6-15.7-5.3-18.2-5.9c-1.5-0.4-8.5-2-18.1-3
	C322.3,219.1,317.1,218.9,313,218.9z"/>
<path class="st0" d="M322.2,449.4c5.9-0.9,10.9-1.4,14.6-1.8c5.8-0.6,10.5-1.1,16.7-1.2c4.1-0.1,7.6,0,9.9,0.1
	c4,0.7,7.9,1.4,11.9,2.1c3.3,0.7,7.2,1.8,11.5,3.6c2.9,1.2,5.4,2.5,7.6,3.8c2.2,1.9,5.1,4.7,8.1,8.5c1.4,1.8,2.9,3.8,4.2,6.5
	c0.6,1.2,2.3,5,3,12.1c0.2,1.5,0.6,7.4-1,18.3C408.2,506,407,512,405,519c1.8,6.2,3.6,11.2,4.9,14.5c2.1,5.4,3.7,8.5,8.5,19.8
	c1.1,2.6,2,4.7,2.5,6.1c1.4-1.8,3.4-4.3,5.8-7.4c3.6-4.6,5.4-6.9,7.3-9.7c2.4-3.4,4.3-6.7,8.1-13.1c3.6-6.2,5.4-9.2,6.8-12.2
	c0.9-2,1.1-2.4,4.9-10.8c1.3-2.7,1.9-4.1,2.4-5.3c1.6-3.3,3-6.1,5.7-11.7c2.5-5.1,4.6-9.4,6.2-12.5c1.3-3.2,3.8-8.1,8.5-12.8
	c3.1-3.1,6.3-5.3,8.8-6.6c3.1-1.8,7.2-3.7,12.3-5.3c5.1-1.6,9.6-2.2,13.2-2.5c4.8,0,9.5,0,14.3,0h19.4c2.9,0,5.8,0,8.7,0
	c-4.7-4.3-9.3-8.6-14-12.9c-3.8-2.3-9.7-5.8-13.5-8.1c-9.6-3.2-18-4.4-24.3-4.8c-4.3-0.3-8.6-0.6-14.4,0.1c-9.3,1.1-16.5,4-21.1,6.3
	c-3.2,1.6-6.5,3.2-9.7,4.8c-5.3,3.4-10.7,6.7-16,10.1c-2.9-3.1-7.1-7-12.7-10.6c-6.9-4.3-13.4-6.5-18-7.7c-2.3-0.4-4.6-0.9-7-1.3
	c-3.9-0.8-7.3-1.3-9.9-1.5c-3-0.3-6.9-0.6-12-0.3c-3.6,0.3-6.5,0.8-8.7,1.3c-2.6,0.4-5.4,1-8.4,1.7c-0.8,0.2-1.5,0.4-2.2,0.6
	c-1.1,0.4-3,1.1-4.1,1.5l-8.7,3.7c-2.5,1.4-5,2.8-7.5,4.3c-2.2,1.3-4.5,2.5-6.7,3.8L322.2,449.4z"/>
<path class="st0" d="M630,267.5"/>
</svg>
